Coordinates
version=1
nRows=17
nColumns=40
inDegrees=yes

Units are S.I. units (second, meters, Newtons, ...)
Angles are in degrees.

endheader
time	pelvis_tilt	pelvis_list	pelvis_rotation	pelvis_tx	pelvis_ty	pelvis_tz	hip_flexion_r	hip_adduction_r	hip_rotation_r	knee_angle_r	knee_angle_r_beta	ankle_angle_r	subtalar_angle_r	mtp_angle_r	hip_flexion_l	hip_adduction_l	hip_rotation_l	knee_angle_l	knee_angle_l_beta	ankle_angle_l	subtalar_angle_l	mtp_angle_l	lumbar_extension	lumbar_bending	lumbar_rotation	arm_flex_r	arm_add_r	arm_rot_r	elbow_flex_r	pro_sup_r	wrist_flex_r	wrist_dev_r	arm_flex_l	arm_add_l	arm_rot_l	elbow_flex_l	pro_sup_l	wrist_flex_l	wrist_dev_l
     45.38500000	     -6.42804728	     -5.04224904	    -12.79208169	      1.07493107	      0.93085141	      0.45418962	     24.65705078	     -1.81805136	      0.07937683	     25.05138908	     25.05138908	      8.21458926	      5.98029826	     -4.10914003	     10.76429875	     -7.92939927	    -12.57482419	     21.59901866	     21.59901866	     17.28655547	    -15.48882434	      5.48498505	    -10.00337670	      8.68771906	      2.36035988	    -22.23502159	    -10.60849709	    -11.25927576	     32.13110529	     46.60429094	      0.00000000	      0.00000000	     44.34410664	    -28.52223843	    -10.67542145	     79.10324550	     48.71213066	      0.00000000	      0.00000000
     45.40535714	     -6.62643490	     -4.97398131	    -13.21050116	      1.07447390	      0.92971718	      0.45887758	     23.63922776	     -1.16995027	     -0.20302683	     20.97973995	     20.97973995	      8.20411439	      8.43357174	     -1.61570290	     10.61616826	     -8.20865287	    -12.92407377	     21.68285152	     21.68285152	     17.44769107	    -15.65456747	      5.18753375	     -9.94756077	      8.53385594	      2.46754506	    -22.28219114	    -10.34400920	    -10.96372809	     32.92363275	     46.53999894	      0.00000000	      0.00000000	     45.21476128	    -28.90384853	    -11.24879546	     79.88889625	     48.76247863	      0.00000000	      0.00000000
     45.42571429	     -6.87758368	     -4.68311808	    -13.51009425	      1.07419388	      0.92817167	      0.46343323	     23.34890754	     -0.93607214	     -0.94437384	     18.69162849	     18.69162849	      9.40505598	     11.37403735	      4.26843964	     10.59433848	     -8.25530729	    -13.20645413	     21.78684963	     21.78684963	     17.52187481	    -15.71689759	      4.50787330	     -9.73618212	      8.18284899	      2.29139917	    -22.60247858	    -10.38165593	     -9.69012665	     35.15397122	     46.32557726	      0.00000000	      0.00000000	     45.58316387	    -28.96489696	    -12.74384063	     81.36536772	     48.85558298	      0.00000000	      0.00000000
     45.44607143	     -7.04443851	     -4.46405928	    -13.68044742	      1.07431885	      0.92670700	      0.46823384	     22.87587156	     -0.52335035	     -1.02893190	     16.70766340	     16.70766340	      8.90611200	     12.41780583	      5.04182327	     10.47489629	     -8.35224317	    -13.35266964	     21.91589805	     21.91589805	     17.78368791	    -15.78273178	      4.36080519	     -9.55775912	      7.91027894	      2.37237039	    -22.20011910	    -10.17895546	     -9.45447256	     35.38302455	     46.30012028	      0.00000000	      0.00000000	     46.30749623	    -29.05094268	    -12.89599448	     81.79614276	     48.87384772	      0.00000000	      0.00000000
     45.46642857	     -7.20574673	     -4.17132504	    -13.83457056	      1.07472378	      0.92527631	      0.47314834	     22.80684320	     -0.25040564	     -0.99732528	     15.94095689	     15.94095689	      8.57300164	     12.97211118	      5.31253615	     10.32924670	     -8.36766989	    -13.52425500	     22.00448671	     22.00448671	     17.99962393	    -15.84471690	      4.26341215	     -9.33921342	      7.61335693	      2.51198420	    -21.67473454	    -10.08461186	     -9.33904233	     35.63975867	     46.28443746	      0.00000000	      0.00000000	     46.71575055	    -29.01256477	    -13.05990557	     82.10060110	     48.89064398	      0.00000000	      0.00000000
     45.48678571	     -7.28139670	     -3.98971682	    -13.78403494	      1.07572392	      0.92416577	      0.47799106	     22.74774509	     -0.00674700	     -1.05802888	     15.91090155	     15.91090155	      8.44771251	     13.02312160	      5.34212116	     10.03527383	     -8.43098888	    -13.44596895	     22.02074307	     22.02074307	     18.21752721	    -15.86908582	      4.18643206	     -9.10074944	      7.50494392	      2.61079150	    -21.47783639	    -10.11706877	     -9.32837022	     35.72093965	     46.28172931	      0.00000000	      0.00000000	     46.73661384	    -28.96830181	    -13.09081727	     82.15700768	     48.89347364	      0.00000000	      0.00000000
     45.50714286	     -7.22397544	     -3.96607135	    -13.69957682	      1.07709213	      0.92384501	      0.48294119	     22.20789299	      0.30819976	     -1.16125614	     15.59386897	     15.59386897	      7.74485242	     13.15377570	      3.89778467	      9.34570683	     -8.64908433	    -13.71964468	     21.67410803	     21.67410803	     18.47390729	    -15.32717625	      4.26637253	     -9.17832250	      7.52114234	      2.63246479	    -20.77861645	    -10.41608733	     -8.81003807	     36.17631726	     46.22683792	      0.00000000	      0.00000000	     46.30161423	    -27.88117053	    -14.77005500	     83.49441830	     49.00835925	      0.00000000	      0.00000000
     45.52750000	     -7.28669399	     -3.79003124	    -13.48820910	      1.07861640	      0.92326514	      0.48787189	     22.30868948	      0.45744688	     -0.95182695	     16.42962943	     16.42962943	      7.62933696	     12.24482477	      2.43870840	      8.87807780	     -8.68970593	    -13.64652643	     21.38111591	     21.38111591	     18.61115158	    -15.08865093	      4.36021390	     -8.92894699	      7.43765432	      2.41356869	    -20.17695536	    -10.81792850	     -8.56232823	     36.38943221	     46.20201830	      0.00000000	      0.00000000	     45.66797974	    -27.63013740	    -15.37210320	     83.70092386	     49.03664866	      0.00000000	      0.00000000
     45.54785714	     -7.31346092	     -3.83898733	    -13.13557239	      1.08045541	      0.92322028	      0.49280918	     22.05849804	      0.71147585	     -1.12446515	     16.97257925	     16.97257925	      7.75281650	     11.76745117	      1.97931348	      8.32455841	     -8.95650359	    -13.44784221	     21.05897093	     21.05897093	     18.63924513	    -14.82552988	      4.43345221	     -8.73445533	      7.60769383	      2.37698337	    -19.66366634	    -11.25804745	     -8.57592357	     36.53428862	     46.20025589	      0.00000000	      0.00000000	     45.04333650	    -27.03167301	    -15.32253002	     83.66826734	     49.02622089	      0.00000000	      0.00000000
     45.56821429	     -7.23519411	     -3.72280907	    -12.81431814	      1.08249982	      0.92340227	      0.49801042	     21.69641915	      0.97263962	     -0.29751000	     17.40331295	     17.40331295	      6.71205260	      9.55516039	     -2.40738091	      7.50546075	     -9.06450756	    -13.65751609	     20.44268226	     20.44268226	     18.66983463	    -13.99096743	      4.50702327	     -8.62309964	      7.52866540	      1.71589619	    -18.74782084	    -11.93418939	     -7.82621161	     36.43858003	     46.14590919	      0.00000000	      0.00000000	     43.48343986	    -26.42357077	    -17.69873866	     84.77022282	     49.15017650	      0.00000000	      0.00000000
     45.58857143	     -7.24566866	     -3.74491072	    -12.31387966	      1.08450025	      0.92375305	      0.50290999	     21.33988561	      1.11934765	     -0.61093048	     17.86083977	     17.86083977	      7.14668904	      9.14429954	     -2.69022638	      6.98825008	     -9.32902083	    -13.48182487	     20.13737815	     20.13737815	     18.49805876	    -13.66499989	      4.62585063	     -8.42160257	      7.58612129	      1.61605613	    -18.34528073	    -12.45073370	     -7.89395454	     36.54529689	     46.14872367	      0.00000000	      0.00000000	     42.67009373	    -25.70269833	    -17.44055447	     84.55103414	     49.12202444	      0.00000000	      0.00000000
     45.60892857	     -7.10315205	     -3.61014507	    -11.93373041	      1.08662657	      0.92454050	      0.50806378	     20.99330336	      1.19925622	     -0.33420692	     18.54455640	     18.54455640	      7.51267137	      8.05580128	     -3.11091832	      5.97175462	     -9.36980759	    -13.66610133	     19.20563127	     19.20563127	     18.28879668	    -12.74024121	      4.75071030	     -8.31724091	      7.42499521	      1.54601009	    -17.98367397	    -12.99221362	     -7.92888604	     36.61766790	     46.14756839	      0.00000000	      0.00000000	     41.42776206	    -24.98507060	    -17.66499586	     84.10217469	     49.11095683	      0.00000000	      0.00000000
     45.62928571	     -7.10520372	     -3.63301636	    -11.33057980	      1.08841222	      0.92517190	      0.51293704	     20.54615753	      1.35104412	     -0.63511630	     18.75782713	     18.75782713	      7.89512629	      7.57679324	     -3.26946849	      5.52749895	     -9.67434231	    -13.43623129	     18.95976158	     18.95976158	     18.05672586	    -12.26454524	      4.82057291	     -8.13804238	      7.38992091	      1.37735426	    -17.55424214	    -13.51100253	     -8.01705654	     36.75040793	     46.15048305	      0.00000000	      0.00000000	     40.34315144	    -24.05875220	    -17.47424544	     83.74672237	     49.08180789	      0.00000000	      0.00000000
     45.64964286	     -7.10914895	     -3.61297955	    -10.73526645	      1.09003489	      0.92588303	      0.51776797	     20.07087940	      1.47582137	     -0.91914702	     18.83087466	     18.83087466	      8.30665590	      7.10991589	     -3.37300343	      5.10399477	     -9.95379161	    -13.28545248	     18.68989379	     18.68989379	     17.73130196	    -11.70249350	      4.90749128	     -7.99171750	      7.30053223	      1.25191512	    -17.14966009	    -13.99297285	     -8.10850632	     36.89024795	     46.15313929	      0.00000000	      0.00000000	     39.08229167	    -23.12084613	    -17.32237919	     83.26059773	     49.05162555	      0.00000000	      0.00000000
     45.67000000	     -7.04292330	     -3.77901930	    -10.23393582	      1.09169695	      0.92696029	      0.52296573	     19.23545445	      1.94637186	     -0.73735261	     18.38396204	     18.38396204	      8.49197287	      6.05354400	     -3.04325743	      4.45068245	    -10.58826228	    -13.94042509	     18.30355945	     18.30355945	     17.47640503	     -9.88914011	      4.29144636	     -7.90054942	      7.39178092	      0.90658539	    -16.54357934	    -14.52872212	     -8.14953902	     37.16535976	     46.13750431	      0.00000000	      0.00000000	     37.57591251	    -22.00986932	    -18.78819142	     81.92062259	     49.07996610	      0.00000000	      0.00000000
     45.69035714	     -7.04071206	     -3.74362033	     -9.60376427	      1.09287710	      0.92765371	      0.52762177	     18.71885698	      2.05138684	     -1.12897190	     18.25026611	     18.25026611	      8.82684653	      5.85580219	     -3.06630724	      4.22810917	    -10.88960269	    -13.62452715	     18.31137204	     18.31137204	     17.13002171	     -9.46683802	      4.33011279	     -7.79125973	      7.17560978	      0.77516419	    -16.03223770	    -14.89423809	     -8.20488478	     37.36160593	     46.13606493	      0.00000000	      0.00000000	     36.11000521	    -20.92338516	    -18.44914457	     81.29610024	     49.03250675	      0.00000000	      0.00000000
     45.71071429	     -7.08118216	     -3.90745134	     -8.97205775	      1.09393579	      0.92846906	      0.53230166	     17.91868565	      2.39739762	     -1.64286291	     17.51424911	     17.51424911	      8.98627495	      5.89562986	     -2.78581881	      4.09726440	    -11.51242861	    -13.58853854	     18.44990133	     18.44990133	     16.78798592	     -8.58799492	      4.07405154	     -7.67870823	      7.25881743	      0.45299417	    -15.34540873	    -15.30313903	     -8.19280797	     37.70604529	     46.12285128	      0.00000000	      0.00000000	     34.42021691	    -20.16457047	    -18.36082454	     79.66552174	     48.97248518	      0.00000000	      0.00000000
